<svg id="cancel" enable-background="new 0 0 300 300" height="512" viewBox="0 0 300 300" width="512" xmlns="http://www.w3.org/2000/svg"><g><circle cx="110.799" cy="134" fill="#d2ddff" r="86"/><path d="m162.799 76c-7.719 0-14-6.281-14-14s6.281-14 14-14 14 6.281 14 14-6.281 14-14 14zm0-20c-3.309 0-6 2.691-6 6s2.691 6 6 6 6-2.691 6-6-2.692-6-6-6z" fill="#4c241d"/><g><path d="m226.855 260h-172.113c-5.492 0-9.943-4.452-9.943-9.943v-108.114c0-5.492 4.452-9.943 9.943-9.943h172.113c5.492 0 9.943 4.452 9.943 9.943v104.113c.001 5.492-4.451 13.944-9.943 13.944z" fill="#6b4f5b"/><path d="m226.855 264h-172.113c-7.688 0-13.943-6.256-13.943-13.943v-108.114c0-7.688 6.256-13.943 13.943-13.943h172.113c7.688 0 13.943 6.256 13.943 13.943v104.113c.001 7.143-5.56 17.944-13.943 17.944zm-172.113-128c-3.277 0-5.943 2.666-5.943 5.943v108.113c0 3.277 2.666 5.943 5.943 5.943h172.113c2.443 0 5.943-5.855 5.943-9.943v-104.113c0-3.277-2.666-5.943-5.943-5.943z" fill="#4c241d"/></g><path d="m224.799 188h-168c-2.209 0-4-1.791-4-4s1.791-4 4-4h168c2.209 0 4 1.791 4 4s-1.791 4-4 4z" fill="#4c241d"/><g><path d="m64.799 120h24v12h-24z" fill="#f53e28"/><path d="m88.799 136h-24c-2.209 0-4-1.791-4-4v-12c0-2.209 1.791-4 4-4h24c2.209 0 4 1.791 4 4v12c0 2.209-1.791 4-4 4zm-20-8h16v-4h-16z" fill="#4c241d"/></g><g><path d="m107.39 132.15 16.074-24.15h31.854l19.264 24.15z" fill="#b5a19c"/><path d="m174.582 136.15h-67.191c-1.475 0-2.83-.811-3.525-2.111-.697-1.299-.621-2.877.195-4.105l16.074-24.15c.742-1.113 1.992-1.783 3.33-1.783h31.854c1.217 0 2.367.555 3.127 1.506l19.264 24.15c.959 1.201 1.145 2.846.477 4.229-.667 1.384-2.068 2.264-3.605 2.264zm-59.725-8h51.418l-12.882-16.15h-27.785z" fill="#4c241d"/></g><g><circle cx="140.799" cy="196" fill="#b5a19c" r="44"/><path d="m140.799 244c-26.467 0-48-21.533-48-48s21.533-48 48-48 48 21.533 48 48-21.533 48-48 48zm0-88c-22.057 0-40 17.943-40 40s17.943 40 40 40 40-17.943 40-40-17.944-40-40-40z" fill="#4c241d"/></g><g><circle cx="140.799" cy="196" fill="#26deeb" r="32"/><path d="m140.799 232c-19.85 0-36-16.15-36-36s16.15-36 36-36 36 16.15 36 36-16.151 36-36 36zm0-64c-15.439 0-28 12.561-28 28s12.561 28 28 28 28-12.561 28-28-12.561-28-28-28z" fill="#4c241d"/></g><g><circle cx="76.799" cy="184" fill="#2ee52b" r="8"/><path d="m76.799 196c-6.617 0-12-5.383-12-12s5.383-12 12-12 12 5.383 12 12-5.383 12-12 12zm0-16c-2.205 0-4 1.795-4 4s1.795 4 4 4 4-1.795 4-4-1.795-4-4-4z" fill="#4c241d"/></g><g fill="#4c241d"><path d="m76.799 56c-2.209 0-4-1.791-4-4v-12c0-2.209 1.791-4 4-4s4 1.791 4 4v12c0 2.209-1.791 4-4 4z"/><path d="m76.799 84c-2.209 0-4-1.791-4-4v-12c0-2.209 1.791-4 4-4s4 1.791 4 4v12c0 2.209-1.791 4-4 4z"/><path d="m68.799 64h-12c-2.209 0-4-1.791-4-4s1.791-4 4-4h12c2.209 0 4 1.791 4 4s-1.791 4-4 4z"/><path d="m96.799 64h-12c-2.209 0-4-1.791-4-4s1.791-4 4-4h12c2.209 0 4 1.791 4 4s-1.791 4-4 4z"/></g><g><circle cx="236.799" cy="132" fill="#e66353" r="34.402"/><path d="m236.799 170.402c-21.176 0-38.402-17.227-38.402-38.402s17.227-38.402 38.402-38.402 38.402 17.227 38.402 38.402-17.226 38.402-38.402 38.402zm0-68.804c-16.764 0-30.402 13.639-30.402 30.402s13.639 30.402 30.402 30.402 30.402-13.639 30.402-30.402-13.639-30.402-30.402-30.402z" fill="#4c241d"/></g><path d="m248.857 148.355c-1.023 0-2.047-.391-2.828-1.172l-23.395-23.393c-1.562-1.562-1.562-4.094 0-5.656s4.094-1.562 5.656 0l23.395 23.393c1.562 1.562 1.562 4.094 0 5.656-.781.782-1.804 1.172-2.828 1.172z" fill="#4c241d"/><path d="m225.463 148.355c-1.023 0-2.047-.391-2.828-1.172-1.562-1.562-1.562-4.094 0-5.656l23.395-23.393c1.562-1.562 4.094-1.562 5.656 0s1.562 4.094 0 5.656l-23.395 23.393c-.781.782-1.805 1.172-2.828 1.172z" fill="#4c241d"/></g></svg>